<svg xmlns="http://www.w3.org/2000/svg" viewBox="0 0 64 64">
  <defs>
    <linearGradient id="signpulseBlue" x1="12" y1="10" x2="52" y2="54" gradientUnits="userSpaceOnUse">
      <stop offset="0" stop-color="#44c1ff"/>
      <stop offset="1" stop-color="#1f9fe4"/>
    </linearGradient>
  </defs>
  <rect width="64" height="64" rx="16" fill="url(#signpulseBlue)"/>
  <circle cx="32" cy="32" r="24" fill="rgba(255,255,255,0.12)"/>
  <path
    d="M47.6 18.7 41.8 46a3.1 3.1 0 0 1-4.5 2L28 43.1l-4.8 4.3a2.5 2.5 0 0 1-4.1-2.2l1-8.5 18.5-16.8c.8-.7-.2-1.8-1.1-1.2L15.3 32.7a2.7 2.7 0 0 1-3.8-2.8l.8-4.1a3.7 3.7 0 0 1 2.2-2.7l28.8-11a3.2 3.2 0 0 1 4.3 3.6Z"
    fill="#fff"
  />
</svg>
